<svg id="Layer_1" data-name="Layer 1" xmlns="http://www.w3.org/2000/svg" width="1196.55" height="1196.55" viewBox="0 0 1196.55 1196.55"><defs><style>.cls-1,.cls-4,.cls-5,.cls-6,.cls-7{fill:none;stroke:#ffe400;}.cls-1,.cls-4,.cls-6,.cls-7{stroke-linecap:round;stroke-linejoin:round;}.cls-1{stroke-width:43px;}.cls-2{fill:#fff;}.cls-3{fill:#ffe400;}.cls-4{stroke-width:22px;}.cls-5{stroke-miterlimit:10;stroke-width:9px;}.cls-6{stroke-width:41px;}.cls-7{stroke-width:36px;}</style></defs><path class="cls-1" d="M906.6,855.62A331.57,331.57,0,0,1,955,915.84a340.29,340.29,0,0,1,40.17,92.83"/><path class="cls-2" d="M893.9,862.67a234.4,234.4,0,0,1-41.07,34.41c-44.32,28.72-91.69,32.72-186.5,34.44-99.59,1.81-149.39,2.71-184.28-2.25,0,0-113.91-16.18-172.3-64.56a213.55,213.55,0,0,1-25.65-25.65A187,187,0,0,1,252,781.35c37.52-12,135.14-48.57,211.59-147.47C555,515.67,554.73,388,553.4,351.76H752.16c56.83-105.74,146-154.6,203.93-133,50.24,18.71,66.74,86.65,71.78,107.39,30.37,125.08-62,233.15-76.94,250.06A319.48,319.48,0,0,1,944.51,775C935.86,798.51,923.64,830.8,893.9,862.67Z"/><path class="cls-1" d="M454,361.38c-45.71-111.55-145.3-164-211.59-141.06-81.72,28.25-89.31,162.87-89.76,173.12-4.42,100,55.54,169.5,70.53,185.94-3,25.46-19.9,190.66,89.76,288.53,73,65.15,162,64.74,295,64.12,132.16-.61,217-1,282.11-64.12,102-98.79,68.7-267,64.12-288.53,19-21,77.84-91.41,76.94-192.35-.16-18.84-3.31-139.88-70.53-166.71C903.44,197.52,809.44,246.61,755.37,355A1133.59,1133.59,0,0,0,454,361.37Z"/><path class="cls-3" d="M264.76,519.45c21,2.4,25.44-33.78,83.93-84.23,32-27.59,48.23-31.91,50.71-50.42,4.29-32-38.4-61.58-51.29-70.53-19.29-13.38-53.24-36.95-83.35-25.65-48.47,18.19-45.26,111-44.89,121.83C221.38,454.12,237.78,516.36,264.76,519.45Z"/><path class="cls-3" d="M932.37,519.45c-18.91,2.34-23.67-25.79-78.6-76.27-37.14-34.12-53.91-38.68-56-58.38-3.49-32.18,36.91-60.46,51.3-70.53,18.5-13,52.94-37.06,83.35-25.65,48.38,18.16,45.26,110.67,44.88,121.83C975.79,453.64,959.81,516.05,932.37,519.45Z"/><path class="cls-3" d="M524.54,682c6.62-17.57,46-16.67,73.74-16,25.44.59,72.44,1.67,76.94,19.24,4.1,16-29.28,36.77-32.06,38.47a90.62,90.62,0,0,1-44.88,12.82c-8.76.18-40.58.81-60.91-22.44C533.27,709.34,520,694.14,524.54,682Z"/><path class="cls-4" d="M595.07,739.68c-2.24,14.16-8.84,41.77-31.55,63.14-20.82,19.6-44.19,23.59-80.65,29.83-43.74,7.48-70.77,12.1-102.59,0-42.57-16.19-65-51.41-73.74-67.33"/><path class="cls-4" d="M601.44,733.27c-.53,9.71-.3,31,12.83,51.29,13,20.05,31.43,28.19,48.09,35.26,23,9.79,45.27,10.8,89.76,12.83,39.11,1.78,55.29-.84,70.53-6.41,10.88-4,22.47-8.37,32.06-19.24,20.94-23.73,14.19-57.79,12.82-64.12"/><path class="cls-5" d="M612.58,933A102.66,102.66,0,0,1,619,974.21c-.76,14.17-3.51,33.13-7.5,33.25-2.48.07-6.18-7.06-11.39-40.11"/><path class="cls-3" d="M561.38,1006.64l106.64.85a30.81,30.81,0,0,1,14.55-14.55c10.59-4.91,20.39-1.71,24.34-.37,2.85,1,18.38,6.61,19.37,16.92.08.78.43,5.34-2,6.9-3.86,2.44-9.42-5.72-17.15-4.37-5,.89-9,5.47-10.5,9.88-.47,1.37-1.94,6.36.62,11a13.12,13.12,0,0,0,5.28,5.06c7.54,4.28,14.92.44,17.85,4.86a3.22,3.22,0,0,1,.69,1.86c-.22,5.91-24.31,15.24-40.06,6.06a29,29,0,0,1-11.28-12.86H562.13a33.24,33.24,0,0,1-8.23,9.89c-1.73,1.4-12.55,9.81-25.45,6.93-14.26-3.19-24.12-18.65-21.49-23.16.89-1.52,3.18-1.79,5.38-2.06,6.64-.79,9,3.28,14.4,2.82,4.47-.39,8.4-3.62,10.4-7.13,2.39-4.19,2.79-10.09.16-14.15-5.66-8.74-22.69-4.79-23.43-8.82-.52-2.77,7.17-6.28,10.22-7.67,5.76-2.63,14.66-6.69,23.89-3a23.16,23.16,0,0,1,9.36,7A22.46,22.46,0,0,1,561.38,1006.64Z"/><circle class="cls-6" cx="598.28" cy="598.28" r="577.78"/><path class="cls-7" d="M266.5,882.89A405.2,405.2,0,0,0,386.44,949.3c16.53,5.71,58.1,18.84,213.63,18.05,162.13-.82,205.3-15.53,224.31-22.78a395.21,395.21,0,0,0,107-61.68"/><path class="cls-6" d="M744.68,124.23a111.85,111.85,0,0,1,60.37,25.87"/><path class="cls-6" d="M370.6,160.68a412.86,412.86,0,0,1,306-53.16"/><path class="cls-1" d="M207.77,1009.49a340,340,0,0,1,40.17-92.83,331.57,331.57,0,0,1,48.36-60.22"/></svg>