<svg id="Layer_1" data-name="Layer 1" xmlns="http://www.w3.org/2000/svg" viewBox="0 0 1324 614"><defs><style>.cls-1{fill:none;stroke:#fff;stroke-miterlimit:10;stroke-width:3px;stroke-dasharray:20;}</style></defs><path class="cls-1" d="M127.08,20.24c53.1,0,90.9,30.6,101.4,78.6h-63.3c-7.5-15.9-21.6-24.6-39-24.6-27,0-44.7,21-44.7,53.4,0,32.7,17.7,53.7,44.7,53.7,17.4,0,31.5-8.7,39-24.6h63.3c-10.5,48-48.3,78.6-101.4,78.6-63.6,0-105.3-44.4-105.3-107.7C21.78,64.64,63.48,20.24,127.08,20.24Z"/><path class="cls-1" d="M357.78,235.94c-60,0-108.6-45-108.6-108.6S297.78,19,357.78,19c60.3,0,108.3,44.7,108.3,108.3S417.78,235.94,357.78,235.94Zm0-54.6c30.3,0,48.6-21.3,48.6-54,0-33.3-18.3-54.3-48.6-54.3-30.6,0-48.6,21-48.6,54.3C309.18,160,327.18,181.34,357.78,181.34Z"/><path class="cls-1" d="M492.47,22.34h71.1l53.1,137.4,51.9-137.4h70.81v211.5H680.57V117.14l-39.9,116.7h-49.2l-40.2-117.6v117.6h-58.8Z"/><path class="cls-1" d="M773,22.34h58.8v211.5H773Z"/><path class="cls-1" d="M1061.27,22.34v211.5h-58.8l-78.3-118.2v118.2h-58.8V22.34h58.8l78.3,119.7V22.34Z"/><path class="cls-1" d="M1293.17,91.94h-63.3c-6.6-11.1-18.6-17.4-34.8-17.4-29.7,0-47.7,20.7-47.7,53.1,0,36.3,18.6,55.8,53.4,55.8,20.4,0,35.4-9.6,44.1-27.9h-59.1v-42.3h109.8v57c-12.6,30.9-45.3,65.1-100.5,65.1-64.8,0-107.4-44.4-107.4-107.7,0-63,42.3-107.4,107.1-107.4C1248.17,20.24,1284.77,47.84,1293.17,91.94Z"/><path class="cls-1" d="M340.08,595.94c-47.1,0-83.7-22.5-86.1-67.8h62.7c1.2,15.9,10.5,21.3,21.3,21.3,10.5,0,18.6-5.4,18.6-15.3-.3-33.9-102.9-18-102-91.5,0-41.4,34.5-63.6,79.2-63.6,48.6,0,80.4,23.7,82.5,65.7h-63.9c-.6-13.2-8.7-19.2-19.5-19.2-8.7-.3-15.6,4.8-15.6,15,0,31.5,101.7,21.3,101.7,89.1C419,566.84,390.18,595.94,340.08,595.94Z"/><path class="cls-1" d="M547.68,595.94c-60,0-108.61-45-108.61-108.6S487.68,379,547.68,379C608,379,656,423.74,656,487.34S607.68,595.94,547.68,595.94Zm0-54.6c30.3,0,48.6-21.3,48.6-54,0-33.3-18.3-54.3-48.6-54.3-30.6,0-48.6,21-48.6,54.3C499.08,520,517.08,541.34,547.68,541.34Z"/><path class="cls-1" d="M783.77,595.94c-60,0-108.6-45-108.6-108.6S723.77,379,783.77,379c60.3,0,108.3,44.7,108.3,108.3S843.77,595.94,783.77,595.94Zm0-54.6c30.3,0,48.6-21.3,48.6-54,0-33.3-18.3-54.3-48.6-54.3-30.6,0-48.6,21-48.6,54.3C735.17,520,753.17,541.34,783.77,541.34Z"/><path class="cls-1" d="M1114.37,382.34v211.5h-58.8l-78.3-118.2v118.2h-58.8V382.34h58.8l78.3,119.7V382.34Z"/></svg>
