<?xml version="1.0" encoding="utf-8"?>
<!-- Generator: Adobe Illustrator 24.1.0, SVG Export Plug-In . SVG Version: 6.00 Build 0)  -->
<svg version="1.1" xmlns="http://www.w3.org/2000/svg" xmlns:xlink="http://www.w3.org/1999/xlink" x="0px" y="0px"
	 viewBox="0 0 1193.1 414" style="enable-background:new 0 0 1193.1 414;" xml:space="preserve">
<style type="text/css">
	.st0{fill:#FFFFFF;}
	.st1{fill:none;stroke:#000000;stroke-width:3;stroke-linecap:round;stroke-linejoin:round;}
	.st2{fill:#666766;stroke:#000000;stroke-width:3;stroke-linecap:round;stroke-linejoin:round;}
	.st3{fill:#666667;}
	.st4{fill:#F4C5C4;}
	.st5{fill:none;stroke:#000000;stroke-width:2;stroke-linecap:round;stroke-linejoin:round;}
	.st6{fill:#060606;}
	.st7{fill:none;stroke:#000000;stroke-linecap:round;stroke-linejoin:round;}
	.st8{fill:#FFE401;stroke:#000000;stroke-width:3;stroke-linecap:round;stroke-linejoin:round;}
	.st9{fill:#666667;stroke:#000000;stroke-width:6.07;stroke-miterlimit:10;}
	.st10{fill:none;}
	.st11{fill:#FFE401;}
	.st12{fill:none;stroke:#21232C;stroke-width:2;stroke-miterlimit:10;}
	.st13{fill:#21232C;stroke:#21232C;stroke-miterlimit:10;}
	.st14{fill:#FFE401;stroke:#FFE401;stroke-miterlimit:10;}
</style>
<g id="Layer_1">
	<g>
		<path class="st0" d="M261.3,162c-41.7,10.9-84.4,11.5-126.2,1.6c1.3-10.3,4.9-19.8,10.4-27.1c9.3,6.5,30.8,19.2,58.8,16.1
			c21.3-2.3,37.3-12.7,46-19.5C255.5,141.5,259.3,151.4,261.3,162L261.3,162z"/>
		<path class="st1" d="M149.9,136.7c-4.4,3-8.2,6.9-11.1,11.6c-2.9,4.6-4.9,9.9-5.7,15.4"/>
		<path class="st1" d="M250.5,135.5c3,3.2,5.7,6.7,7.9,10.6c2.9,5,5.2,10.5,6.6,16.3"/>
		<path class="st2" d="M203.3,154.8c-34.2,0.7-43.9-4-49.5-7.6c-3.4-2.2-6.6-4.7-9.5-7.6c0-2,1.1-3.7,2.7-4.4c2-0.8,3.8,0.6,3.9,0.7
			l101-2.6c1,0.3,1.8,1,2.3,1.9c0.3,0.6,0.5,1.3,0.5,2c-1.7,2.7-3.7,5.1-6,7.3C243.4,149.5,235.5,154.1,203.3,154.8z"/>
		<path class="st0" d="M248.4,136.7c-2,2.3-4.3,4.3-6.7,6c-7.3,5-15.1,5.7-30.6,6c-16.4,0.3-24.5,0.5-30.3-0.4
			c0,0-18.7-2.8-28.3-11.3c-1.5-1.4-2.9-2.9-4.2-4.5c-2.3-3-4.1-6.4-5.3-10.1c6.2-2.1,22.2-8.5,34.7-25.8c15-20.7,15-43.1,14.7-49.4
			h32.6c9.3-18.5,24-27.1,33.5-23.3c8.2,3.3,11,15.2,11.8,18.8c5,21.9-10.2,40.9-12.6,43.8c3.1,11.4,2.8,23.6-1.1,34.8
			C255.3,125.5,253.3,131.1,248.4,136.7z"/>
		<path class="st3" d="M186.7,110.7c3.5-4.1,4.5-8.3,6.3-16.9c2-9.4,4-25.5-0.5-46.6l-15.8,1.1c-2.1-4-4.6-7.8-7.4-11.2
			c-5-6.1-10-12.3-17.9-13.5c-3.2-0.5-6.5-0.1-9.5,1.1c-5.8,2.4-8.8,7.3-10.5,10.1c-8.4,14-3.8,30.5-3.2,32.6
			c2,6.7,5.6,12.5,6.3,13.5c1.3,2,2.7,3.9,4.2,5.6c-1.1,6.7-1.1,13.5,0,20.2c2.4,15.3,9.8,25.6,13.7,30.3c1.3-3.3,3-6.3,5.3-9
			C167,117.1,178.6,120,186.7,110.7z"/>
		<path class="st1" d="M176.2,48.9c-7.5-19.5-23.9-28.7-34.7-24.7c-13.4,5-14.7,28.5-14.7,30.3c-0.7,17.5,9.1,29.7,11.6,32.6
			c-0.5,4.5-3.3,33.4,14.7,50.6c12,11.4,26.6,11.3,48.4,11.2c21.7-0.1,35.6-0.2,46.3-11.2c16.7-17.3,11.3-46.8,10.5-50.6
			c3.1-3.7,12.8-16,12.6-33.7c0-3.3-0.5-24.5-11.6-29.2c-9.4-4-24.8,4.6-33.7,23.6C209.2,45.8,192.6,46.2,176.2,48.9L176.2,48.9z"/>
		<path class="st4" d="M145.1,76.6c3.4,0.4,4.2-5.9,13.8-14.8c5.3-4.8,7.9-5.6,8.3-8.8c0.7-5.6-6.3-10.8-8.4-12.4
			c-3.2-2.3-8.7-6.5-13.7-4.5c-8,3.2-7.4,19.5-7.4,21.3C138,65.1,140.7,76,145.1,76.6z"/>
		<path class="st4" d="M254.8,76.6c-3.1,0.4-3.9-4.5-12.9-13.4c-6.1-6-8.9-6.8-9.2-10.2c-0.6-5.6,6.1-10.6,8.4-12.4
			c3-2.3,8.7-6.5,13.7-4.5c7.9,3.2,7.4,19.4,7.4,21.3C261.9,65,259.3,76,254.8,76.6z"/>
		<path class="st5" d="M158.3,97.2c4.9-4.4,10.8-5.8,14.7-3.4c0.9,0.5,2.1,1.5,3.2,3.4"/>
		<path class="st5" d="M223.6,94.9c4.9-4.4,10.8-5.8,14.7-3.4c0.9,0.5,2.1,1.5,3.2,3.4"/>
		<path class="st6" d="M180.9,118c1.2,0,2.1-1,2.1-2.2s-0.9-2.2-2.1-2.2c-1.2,0-2.1,1-2.1,2.2S179.8,118,180.9,118z"/>
		<path class="st6" d="M173.3,123.6c1,0,1.8-0.9,1.8-2c0-1.1-0.8-2-1.8-2s-1.8,0.9-1.8,2C171.5,122.7,172.3,123.6,173.3,123.6z"/>
		<path class="st6" d="M168.3,119.1c1.2,0,2.1-1,2.1-2.2c0-1.2-0.9-2.2-2.1-2.2c-1.2,0-2.1,1-2.1,2.2
			C166.2,118.1,167.2,119.1,168.3,119.1z"/>
		<path class="st6" d="M221,116.8c1.2,0,2.1-1,2.1-2.2c0-1.2-0.9-2.2-2.1-2.2s-2.1,1-2.1,2.2C218.8,115.8,219.8,116.8,221,116.8z"/>
		<path class="st6" d="M226,121.9c1,0,1.8-0.8,1.8-1.7c0-0.9-0.8-1.7-1.8-1.7s-1.8,0.8-1.8,1.7C224.1,121.2,224.9,121.9,226,121.9z"
			/>
		<path class="st6" d="M229.6,116.3c1,0,1.8-0.8,1.8-1.7c0-0.9-0.8-1.7-1.8-1.7c-1,0-1.8,0.8-1.8,1.7
			C227.8,115.5,228.6,116.3,229.6,116.3z"/>
		<path class="st7" d="M187.3,101.1c4-1.9,8.3-2.8,12.6-2.8s8.6,1,12.6,2.8"/>
		<path d="M187.8,105.1c1.1-3.1,7.6-2.9,12.1-2.8c4.2,0.1,11.9,0.3,12.6,3.4c0.7,2.8-4.8,6.4-5.3,6.7c-2.2,1.4-4.8,2.2-7.4,2.2
			c-1.4,0-6.7,0.1-10-3.9C189.2,109.8,187,107.2,187.8,105.1z"/>
		<path class="st5" d="M199.4,115.2c-0.4,2.5-1.5,7.3-5.2,11.1c-3.4,3.4-7.3,4.1-13.2,5.2c-7.2,1.3-11.6,2.1-16.8,0
			c-7-2.8-10.7-9-12.1-11.8"/>
		<path class="st5" d="M200.4,114c-0.1,1.7,0,5.4,2.1,9c2.1,3.5,5.2,4.9,7.9,6.2c3.8,1.7,7.4,1.9,14.7,2.2c6.4,0.3,9.1-0.1,11.6-1.1
			c1.8-0.7,3.7-1.5,5.3-3.4c3.4-4.2,2.3-10.1,2.1-11.2"/>
		<path class="st8" d="M229.5,60.7c-9.2,4.3-19.2,6.4-29.3,6.2c-10.1-0.2-20-2.7-29-7.4c0.6-1.1,4.9-9.2,1.7-17.7
			c-1-2.6-2.6-4.9-4.6-6.7c0.5-2.6,1.4-5,2.5-7.3c3.1-6,7.4-9.1,9.5-10.6c10.3-7.2,22.1-5.7,24.3-5.4c18.7,2.6,28.4,20.3,29.6,22.6
			c-1.5,1.1-4.9,3.8-6.7,8.8C224.5,51.9,229,59.7,229.5,60.7z"/>
		<path class="st8" d="M204.4,23.5l-2,4.1c-1-1.6-2-3.1-3-4.7c-0.6-5.8-1.2-11.5-1.8-17.3c0-0.5,0.1-1.1,0.3-1.6
			c0.2-0.5,0.5-1,0.8-1.3c0.4-0.4,0.8-0.7,1.2-0.9c0.5-0.2,1-0.3,1.5-0.3c0.5,0,1,0.1,1.5,0.3c0.5,0.2,0.9,0.5,1.2,0.9
			c0.3,0.4,0.6,0.9,0.8,1.4c0.2,0.5,0.2,1,0.2,1.6L204.4,23.5z"/>
		<path class="st8" d="M187.9,23.3c0.1,2.3,0.2,4.2,0.2,5.7c-1.3-2-2.2-3.7-2.9-4.9c-0.9-1.7-3.4-6.1-4.6-11.4
			c-0.3-1.1-0.6-3,0.5-4.5c0.2-0.2,0.8-1,1.6-1.1c1.5-0.2,2.7,2.1,3.2,3C187.7,13.4,187.7,16.4,187.9,23.3z"/>
		<path class="st8" d="M218.3,24.9c-1.1,1.9-2.1,3.6-2.8,4.9c0-2.4,0.1-4.4,0.1-5.8c0.1-2,0.4-7.1,2.1-12.2c0.4-1.1,1.1-2.9,2.8-3.5
			c0.3-0.1,1.2-0.4,1.9,0c1.3,0.7,1.2,3.3,1.1,4.4C223.3,16.5,221.7,19,218.3,24.9z"/>
		<path class="st1" d="M173,55.3c8.6,4.1,17.8,6.3,27.2,6.5s18.7-1.5,27.5-5.2"/>
		<path class="st0" d="M211.5,55.6c-3,1.9-6.5,3-10,3s-7-1-10-3V32.3h20V55.6z"/>
		<path d="M203.2,41.5c-0.1-1.1-0.5-1.8-1.6-1.9c-1.6-0.1-2.2,1.4-2.4,4.5c0.7-1,2.1-1.6,3.6-1.4c3,0.3,5,2.5,4.7,6.5
			c-0.3,3.8-2.8,6.1-6.7,5.8c-5.4-0.5-6.3-4.7-5.9-10.2c0.6-6.7,2.7-9.6,7.3-9.2c4,0.4,5.4,3.4,5.4,6.3L203.2,41.5z M199.2,48.3
			c-0.1,1.4,0.6,2.2,1.8,2.3c1.1,0.1,1.9-0.5,2-1.9c0.1-1.3-0.5-2.1-1.7-2.2C200.2,46.4,199.3,47,199.2,48.3z"/>
		<path class="st1" d="M202.2,149c0.8,2.3,1.2,4.8,1,7.2c-0.1,2.5-0.6,5.8-1.2,5.8c-0.4,0-1-1.2-1.9-7"/>
		<path class="st9" d="M164.9,161.6l25.2,0.2c0.7-1.4,1.9-2.5,3.4-3.1c2.5-1.1,4.8-0.4,5.8-0.1c0.7,0.2,4.3,1.4,4.6,3.7
			c0,0.2,0.1,1.2-0.5,1.5c-0.9,0.5-2.2-1.2-4.1-0.9c-1.2,0.2-2.1,1.2-2.5,2.1c-0.1,0.3-0.5,1.4,0.1,2.4c0.3,0.5,0.7,0.8,1.2,1.1
			c1.8,0.9,3.5,0.1,4.2,1.1c0.1,0.1,0.2,0.3,0.2,0.4c-0.1,1.3-5.8,3.3-9.5,1.3c-1.2-0.7-2.1-1.6-2.7-2.8h-25.5
			c-0.5,0.8-1.2,1.5-1.9,2.1c-0.4,0.3-3,2.1-6,1.5c-3.4-0.7-5.7-4-5.1-5c0.2-0.3,0.8-0.4,1.3-0.4c1.6-0.2,2.1,0.7,3.4,0.6
			c1.1-0.1,2-0.8,2.5-1.5c0.6-0.9,0.7-2.2,0-3.1c-1.3-1.9-5.4-1-5.5-1.9c-0.1-0.6,1.7-1.4,2.4-1.7c1.4-0.6,3.5-1.4,5.7-0.6
			c0.9,0.3,1.6,0.8,2.2,1.5C164.4,160.3,164.7,160.9,164.9,161.6z"/>
		<path class="st0" d="M171.6,167l-2.1,0l0-4.1l2,0c0.9,0,1.4,0.4,1.4,1.1c0,0.2-0.1,0.4-0.2,0.6c-0.1,0.2-0.3,0.3-0.6,0.3
			c0.2,0,0.5,0.2,0.6,0.4c0.2,0.2,0.2,0.4,0.2,0.6C173.1,166.6,172.5,167,171.6,167z M171.3,163.7h-0.7v0.9h0.7
			c0.4,0,0.6-0.1,0.6-0.4C171.9,163.9,171.7,163.7,171.3,163.7z M171.4,165.3h-0.8v0.9h0.8c0.4,0,0.6-0.1,0.6-0.4
			C172,165.5,171.8,165.3,171.4,165.3z"/>
		<path class="st0" d="M173.4,162.9h1.2l0.8,1.7l0.9-1.7h1.2l-1.6,2.7v1.3h-1.1v-1.3L173.4,162.9z"/>
		<path class="st0" d="M177.7,163l3.4,0v0.8H180l0,3.3h-1.1l0-3.3h-1.2L177.7,163z"/>
		<path class="st0" d="M184.4,163.8l-1.6,0v0.8l1.4,0v0.8h-1.4v0.9h1.6v0.8l-2.7,0l0-4.1l2.7,0L184.4,163.8z"/>
		<path class="st10" d="M1186.6,413H6.6c-3,0-5.5-1.7-5.5-3.7V159.1c0-2,2.5-3.7,5.5-3.7h1180c3,0,5.5,1.7,5.5,3.7v250.2
			C1192.1,411.3,1189.6,413,1186.6,413z"/>
		<g>
			
				<image style="overflow:visible;opacity:0.75;" width="1284" height="350" xlink:href="41DDDD7533E2B52D.png"  transform="matrix(1 0 0 1 -38.5038 116.3083)">
			</image>
			<g>
				<rect x="1.1" y="155.7" class="st11" width="1191" height="257.5"/>
				<rect x="1.1" y="155.7" class="st12" width="1191" height="257.5"/>
			</g>
		</g>
		<path class="st10" d="M1186.6,413H6.6c-3,0-5.5-1.7-5.5-3.7V159.1c0-2,2.5-3.7,5.5-3.7h1180c3,0,5.5,1.7,5.5,3.7v250.2
			C1192.1,411.3,1189.6,413,1186.6,413z"/>
		<polygon class="st13" points="0.7,219.4 71.8,155.5 114,155.3 1.1,256.6 		"/>
		<path class="st10" d="M1186.6,413H6.6c-3,0-5.5-1.7-5.5-3.7V159.1c0-2,2.5-3.7,5.5-3.7h1180c3,0,5.5,1.7,5.5,3.7v250.2
			C1192.1,411.3,1189.6,413,1186.6,413z"/>
		<polygon class="st13" points="0.7,178.8 1.1,156.1 17.5,156.1 0.7,178.8 		"/>
		<path class="st10" d="M1186.6,413H6.6c-3,0-5.5-1.7-5.5-3.7V159.1c0-2,2.5-3.7,5.5-3.7h1180c3,0,5.5,1.7,5.5,3.7v250.2
			C1192.1,411.3,1189.6,413,1186.6,413z"/>
		<polygon class="st13" points="13.5,292.6 166.1,155.5 208.2,155.3 9.1,334.1 		"/>
		<path class="st10" d="M1186.6,413H6.6c-3,0-5.5-1.7-5.5-3.7V159.1c0-2,2.5-3.7,5.5-3.7h1180c3,0,5.5,1.7,5.5,3.7v250.2
			C1192.1,411.3,1189.6,413,1186.6,413z"/>
		<polygon class="st13" points="0.7,390.5 260.5,155.5 302.2,155.5 17.5,412.8 		"/>
		<path class="st10" d="M1186.6,413H6.6c-3,0-5.5-1.7-5.5-3.7V159.1c0-2,2.5-3.7,5.5-3.7h1180c3,0,5.5,1.7,5.5,3.7v250.2
			C1192.1,411.3,1189.6,413,1186.6,413z"/>
		<polygon class="st13" points="67.9,412.8 354.4,155.5 396.6,155.2 109.4,413 		"/>
		<path class="st10" d="M1186.6,413H6.6c-3,0-5.5-1.7-5.5-3.7V159.1c0-2,2.5-3.7,5.5-3.7h1180c3,0,5.5,1.7,5.5,3.7v250.2
			C1192.1,411.3,1189.6,413,1186.6,413z"/>
		<polygon class="st13" points="162.4,412.8 448.9,155.5 491.1,155.2 203.9,413 		"/>
		<path class="st10" d="M1186.6,413H6.6c-3,0-5.5-1.7-5.5-3.7V159.1c0-2,2.5-3.7,5.5-3.7h1180c3,0,5.5,1.7,5.5,3.7v250.2
			C1192.1,411.3,1189.6,413,1186.6,413z"/>
		<polygon class="st13" points="252.6,413.4 540.3,155.2 581.7,155.5 294.9,413 		"/>
		<path class="st10" d="M1186.6,413H6.6c-3,0-5.5-1.7-5.5-3.7V159.1c0-2,2.5-3.7,5.5-3.7h1180c3,0,5.5,1.7,5.5,3.7v250.2
			C1192.1,411.3,1189.6,413,1186.6,413z"/>
		<polygon class="st13" points="343.6,413.4 631.2,155.2 672.8,155.4 385.5,413.4 		"/>
		<path class="st10" d="M1186.6,413H6.6c-3,0-5.5-1.7-5.5-3.7V159.1c0-2,2.5-3.7,5.5-3.7h1180c3,0,5.5,1.7,5.5,3.7v250.2
			C1192.1,411.3,1189.6,413,1186.6,413z"/>
		<polygon class="st13" points="434.7,413.4 722.2,155.2 763.7,155.5 477.2,412.8 		"/>
		<path class="st10" d="M1186.6,413H6.6c-3,0-5.5-1.7-5.5-3.7V159.1c0-2,2.5-3.7,5.5-3.7h1180c3,0,5.5,1.7,5.5,3.7v250.2
			C1192.1,411.3,1189.6,413,1186.6,413z"/>
		<polygon class="st13" points="529.6,413.4 816.8,155.6 858.8,155.4 572.2,412.6 		"/>
		<path class="st10" d="M1186.6,413H6.6c-3,0-5.5-1.7-5.5-3.7V159.1c0-2,2.5-3.7,5.5-3.7h1180c3,0,5.5,1.7,5.5,3.7v250.2
			C1192.1,411.3,1189.6,413,1186.6,413z"/>
		<path class="st10" d="M1186.6,413H6.6c-3,0-5.5-1.7-5.5-3.7V159.1c0-2,2.5-3.7,5.5-3.7h1180c3,0,5.5,1.7,5.5,3.7v250.2
			C1192.1,411.3,1189.6,413,1186.6,413z"/>
		<polygon class="st13" points="529.6,413.4 817.1,156.2 858.8,155.4 572.2,412.6 		"/>
		<path class="st10" d="M1186.6,413H6.6c-3,0-5.5-1.7-5.5-3.7V159.1c0-2,2.5-3.7,5.5-3.7h1180c3,0,5.5,1.7,5.5,3.7v250.2
			C1192.1,411.3,1189.6,413,1186.6,413z"/>
		<polygon class="st13" points="625.9,413.4 913.2,155.5 955,155.5 667.7,413.4 		"/>
		<path class="st10" d="M1186.6,413H6.6c-3,0-5.5-1.7-5.5-3.7V159.1c0-2,2.5-3.7,5.5-3.7h1180c3,0,5.5,1.7,5.5,3.7v250.2
			C1192.1,411.3,1189.6,413,1186.6,413z"/>
		<polygon class="st13" points="721.1,413.4 1008.5,155.4 1050.2,155.5 762.9,413.4 		"/>
		<path class="st10" d="M1186.6,413H6.6c-3,0-5.5-1.7-5.5-3.7V159.1c0-2,2.5-3.7,5.5-3.7h1180c3,0,5.5,1.7,5.5,3.7v250.2
			C1192.1,411.3,1189.6,413,1186.6,413z"/>
		<polygon class="st13" points="816.8,413 1102,156.9 1143.9,156.8 858.6,413 		"/>
		<path class="st10" d="M1186.6,413H6.6c-3,0-5.5-1.7-5.5-3.7V159.1c0-2,2.5-3.7,5.5-3.7h1180c3,0,5.5,1.7,5.5,3.7v250.2
			C1192.1,411.3,1189.6,413,1186.6,413z"/>
		<polygon class="st13" points="912,413 1192.1,160 1191.1,178.3 953.7,413.1 		"/>
		<path class="st10" d="M1186.6,413H6.6c-3,0-5.5-1.7-5.5-3.7V159.1c0-2,2.5-3.7,5.5-3.7h1180c3,0,5.5,1.7,5.5,3.7v250.2
			C1192.1,411.3,1189.6,413,1186.6,413z"/>
		<polygon class="st13" points="1007.1,413 1165.3,271 1163.3,310.3 1048.5,413.4 		"/>
		<path class="st10" d="M1186.6,413H6.6c-3,0-5.5-1.7-5.5-3.7V159.1c0-2,2.5-3.7,5.5-3.7h1180c3,0,5.5,1.7,5.5,3.7v250.2
			C1192.1,411.3,1189.6,413,1186.6,413z"/>
		<polygon class="st13" points="1102.3,413 1180.3,342.9 1181.7,379.2 1144,413.1 		"/>
		<path class="st10" d="M1186.6,413H6.6c-3,0-5.5-1.7-5.5-3.7V159.1c0-2,2.5-3.7,5.5-3.7h1180c3,0,5.5,1.7,5.5,3.7v250.2
			C1192.1,411.3,1189.6,413,1186.6,413z"/>
		<polygon class="st14" points="1190.5,390.5 2.1,390 2.6,178.3 1191.1,178.3 		"/>
		<polygon class="st13" points="0.7,390.5 0.7,412.8 17.5,412.8 		"/>
	</g>
</g>
<g id="Layer_2">
	<g>
		<path class="st0" d="M273.1,145.5c-5.5-1-11.4-2-16.5,0.3c-2.2,1-4.1,2.5-5.8,4.2c-1,1-2,2.1-2.7,3.4c-0.7,1.3-1.2,2.7-1.6,4.1
			c-0.7,2.4-1.5,4.8-1.8,7.3c-0.4,2.7-0.3,5.5,0.6,8.1c0.9,2.5,2.8,4.8,5.3,5.5c2.5,0.8,5.4-0.1,6.8-2.5c2.1,1.5,4.2,3,6.7,3.6
			c2.5,0.5,5.3-0.1,6.8-2.3c0.1-0.2,0.2-0.3,0.4-0.4c0.2-0.1,0.4,0,0.6,0.1c1.7,0.7,3.4,1.6,5.3,1.9c1.8,0.3,3.9,0,5.3-1.2
			c1.3-1.2,1.9-2.9,2.3-4.7c1.4-5.7,1.2-11.9-1.1-17.2s-6.9-9.6-12.4-10.6"/>
		<g>
			<path d="M273.4,144.4c-4.7-0.9-9.7-1.7-14.4-0.6c-4.4,1.1-8.5,4.2-11.1,7.9c-1.4,1.9-2.1,4.3-2.7,6.5c-0.7,2.4-1.4,4.9-1.6,7.4
				c-0.5,4.3,0.4,9.2,3.9,12.1c3.4,2.8,8.5,2.6,11-1.3c-0.5,0.1-1,0.3-1.5,0.4c3.6,2.6,8.2,5.4,12.7,3c0.9-0.5,1.5-1.1,2.1-1.8
				c0.1-0.1,0.1-0.2,0.2-0.3c-0.2,0.2-0.2,0.3,0,0.3c0.2,0.2,0.8,0.3,1,0.4c0.6,0.3,1.2,0.5,1.9,0.7c2.2,0.8,4.5,1,6.7,0.1
				c4.4-1.9,5.1-8.3,5.2-12.4c0.2-5-0.8-10.3-3.5-14.5c-2.6-4.2-6.7-7.5-11.6-8.5c-1.4-0.3-2,1.9-0.6,2.2
				c8.5,1.7,13.2,10.3,13.5,18.4c0.1,2.3-0.1,4.6-0.6,6.9c-0.4,1.9-0.9,4.3-2.6,5.5c-1.8,1.2-4.2,0.7-6.1,0
				c-1.6-0.6-3.7-2.2-5.1-0.6c-0.7,0.8-1.3,1.5-2.4,1.8c-1,0.3-2,0.4-3,0.2c-2.5-0.4-4.7-2.1-6.7-3.5c-0.5-0.4-1.2-0.1-1.5,0.4
				c-1.9,3-5.9,2.6-8.1,0.3c-2.8-2.9-3-7.4-2.4-11.2c0.3-2,0.9-4,1.5-5.9c0.6-1.9,1.2-3.9,2.4-5.6c2.2-3.1,5.7-5.7,9.3-6.7
				c4.5-1.2,9.2-0.3,13.7,0.5C274.2,146.8,274.8,144.7,273.4,144.4L273.4,144.4z"/>
		</g>
	</g>
	<g>
		<g>
			<path d="M258.5,175.5c-1.2-4.1-1.5-8.4-0.7-12.6c0.2-0.9-1.3-1.3-1.4-0.4c-0.8,4.5-0.6,9.1,0.7,13.4
				C257.3,176.8,258.8,176.4,258.5,175.5L258.5,175.5z"/>
		</g>
	</g>
	<g>
		<g>
			<path d="M272.2,176.7c-0.3-2.2-0.7-4.5-1-6.7c-0.3-2.2-0.6-4.5-0.3-6.8c0.1-1-1.4-0.9-1.5,0c-0.3,2.3,0,4.6,0.3,6.9
				c0.3,2.3,0.7,4.6,1.1,7C270.9,178,272.3,177.6,272.2,176.7L272.2,176.7z"/>
		</g>
	</g>
	<g>
		<path class="st0" d="M121.3,145.5c5.5-1,11.4-2,16.5,0.3c2.2,1,4.1,2.5,5.8,4.2c1,1,2,2.1,2.7,3.4c0.7,1.3,1.2,2.7,1.6,4.1
			c0.7,2.4,1.5,4.8,1.8,7.3c0.4,2.7,0.3,5.5-0.6,8.1c-0.9,2.5-2.8,4.8-5.3,5.5c-2.5,0.8-5.4-0.1-6.8-2.5c-2.1,1.5-4.2,3-6.7,3.6
			c-2.5,0.5-5.3-0.1-6.8-2.3c-0.1-0.2-0.2-0.3-0.4-0.4c-0.2-0.1-0.4,0-0.6,0.1c-1.7,0.7-3.4,1.6-5.3,1.9s-3.9,0-5.3-1.2
			c-1.3-1.2-1.9-2.9-2.3-4.7c-1.4-5.7-1.2-11.9,1.1-17.2s6.9-9.6,12.4-10.6"/>
		<g>
			<path d="M121.6,146.6c3.9-0.7,8-1.5,12-0.8c4,0.6,7.3,2.9,10,5.8c2.7,3,3.7,7.3,4.6,11.1c0.9,3.8,1.1,8.2-1.1,11.6
				c-2,3.1-6.7,4.6-9.1,0.9c-0.3-0.5-1-0.8-1.5-0.4c-3,2.2-7.6,5.4-11.2,2.5c-0.6-0.5-0.9-1.4-1.7-1.7c-0.9-0.3-1.8,0.2-2.6,0.6
				c-2,0.9-4.2,1.8-6.4,1.3c-2.2-0.5-3.1-2.5-3.7-4.5c-0.6-2.2-0.9-4.5-1-6.8c-0.1-4.4,0.8-9,3.2-12.8c2.3-3.7,6-6.6,10.3-7.4
				c1.4-0.3,0.8-2.5-0.6-2.2c-9.7,1.9-15,11.8-15.2,21c-0.1,2.6,0.2,5.2,0.8,7.7c0.5,2.2,1.3,4.5,3.1,5.9c1.8,1.3,4.1,1.6,6.2,1.2
				c1.2-0.2,2.3-0.7,3.5-1.1c0.1-0.1,1.9-0.7,1.3-0.9c0.3,0.1,0.9,1.1,1.1,1.3c4.4,3.8,10,0.7,13.9-2.2c-0.5-0.1-1-0.3-1.5-0.4
				c2.1,3.3,6.4,4.2,9.8,2.2c3.8-2.3,5.3-6.9,5.2-11.2c0-2.5-0.6-5-1.2-7.4c-0.6-2.3-1.3-4.7-2.4-6.9c-2-3.9-6.1-7.2-10.1-8.8
				c-5.2-2-11-1-16.3,0C119.5,144.7,120.1,146.8,121.6,146.6L121.6,146.6z"/>
		</g>
	</g>
	<g>
		<g>
			<path d="M137.3,175.9c1.3-4.4,1.5-9,0.7-13.4c-0.2-0.9-1.6-0.5-1.4,0.4c0.8,4.2,0.5,8.5-0.7,12.6
				C135.5,176.4,137,176.8,137.3,175.9L137.3,175.9z"/>
		</g>
	</g>
	<g>
		<g>
			<path d="M123.8,177.1c0.4-2.3,0.7-4.6,1.1-7c0.3-2.3,0.6-4.6,0.3-6.9c-0.1-0.9-1.6-1-1.5,0c0.3,2.3,0,4.5-0.3,6.8
				c-0.3,2.2-0.7,4.5-1,6.7C122.3,177.6,123.7,178,123.8,177.1L123.8,177.1z"/>
		</g>
	</g>
</g>
</svg>
