<svg width="1691" height="261" viewBox="0 0 1691 261" fill="none" xmlns="http://www.w3.org/2000/svg">
<path d="M50 102.59H0V1.58984H48.4299C68.9199 1.58984 81.53 11.0501 81.53 27.8101C81.53 40.0001 74.37 48.02 64.53 50.74C70.0771 51.9304 75.0383 55.0103 78.5659 59.4536C82.0935 63.8969 83.9683 69.4274 83.8699 75.0999C83.8099 92.1299 71.63 102.59 50 102.59ZM42.26 23.9299H28.0701V41.71H42.26C49.14 41.71 52.8599 38.85 52.8599 32.97C52.8599 27.09 49.14 23.9299 42.26 23.9299ZM44.26 61.6099H28.0701V79.95H44.4099C51.4099 79.95 55.01 77.0901 55.01 71.0701C55.01 65.0501 51.14 61.6099 44.26 61.6099Z" fill="white"/>
<path d="M144.57 103.6C115.91 103.6 92.7 82.1 92.7 51.72C92.7 21.34 115.91 0 144.57 0C173.23 0 196.3 21.35 196.3 51.72C196.3 82.09 173.21 103.6 144.57 103.6ZM144.57 77.52C159.04 77.52 167.78 67.34 167.78 51.72C167.78 35.82 159.04 25.79 144.57 25.79C129.95 25.79 121.36 35.79 121.36 51.72C121.36 67.34 129.95 77.52 144.57 77.52Z" fill="white"/>
<path d="M257.34 103.6C228.69 103.6 205.47 82.1 205.47 51.72C205.47 21.34 228.69 0 257.34 0C286.15 0 309.07 21.35 309.07 51.72C309.07 82.09 286 103.6 257.34 103.6ZM257.34 77.52C271.82 77.52 280.56 67.34 280.56 51.72C280.56 35.82 271.82 25.79 257.34 25.79C242.86 25.79 234.13 35.79 234.13 51.72C234.13 67.34 242.73 77.52 257.34 77.52Z" fill="white"/>
<path d="M316.1 1.56982H397.77V23.9297H370.83V102.59H342.75V23.9297H316.1V1.56982Z" fill="white"/>
<path d="M435.21 1.56982H463.16V60.1797C463.16 70.6397 467.88 77.2297 478.49 77.2297C489.1 77.2297 494.11 70.6397 494.11 60.1797V1.56982H522.19V60.1797C522.19 88.9797 502.13 103.6 477.91 103.6C453.69 103.6 435.21 88.9797 435.21 60.1797V1.56982Z" fill="white"/>
<path d="M579.61 68.49H565.71V102.59H537.63V1.58984H579.63C604.71 1.58984 617.46 15.78 617.46 35.27C617.44 52.87 605.26 68.49 579.61 68.49ZM576.89 46.1399C585.35 46.1399 588.78 41.84 588.78 35.25C588.78 28.66 585.35 24.25 576.89 24.25H565.71V46.1799L576.89 46.1399Z" fill="white"/>
<path d="M648.68 1.56982H680.78L698.55 40.5698L716.32 1.56982H747.98L712.45 70.4998V102.59H684.21V70.4998L648.68 1.56982Z" fill="white"/>
<path d="M805.02 103.6C776.36 103.6 753.14 82.1 753.14 51.72C753.14 21.34 776.36 0 805.02 0C833.68 0 856.75 21.35 856.75 51.72C856.75 82.09 833.68 103.6 805.02 103.6ZM805.02 77.52C819.49 77.52 828.23 67.34 828.23 51.72C828.23 35.82 819.49 25.79 805.02 25.79C790.55 25.79 781.8 35.79 781.8 51.72C781.8 67.34 790.4 77.52 805.02 77.52Z" fill="white"/>
<path d="M868.93 1.56982H896.87V60.1797C896.87 70.6397 901.6 77.2297 912.2 77.2297C922.8 77.2297 927.82 70.6397 927.82 60.1797V1.56982H955.9V60.1797C955.9 88.9797 935.84 103.6 911.63 103.6C887.27 103.6 868.93 88.9797 868.93 60.1797V1.56982Z" fill="white"/>
<path d="M1015.66 1.56982C1040.74 1.56982 1053.35 15.8997 1053.35 33.9597C1053.35 47.1397 1046.18 58.5997 1031.14 63.1897L1053.92 102.59H1022.54L1002.48 65.3396H999.48V102.59H971.39V1.5896L1015.66 1.56982ZM1013.37 25.0698H999.47V46.1396H1013.37C1020.96 46.1396 1024.83 42.4098 1024.83 35.5298C1024.83 29.2298 1020.96 25.0698 1013.37 25.0698Z" fill="white"/>
<path d="M1186.21 52.01C1186.21 81.24 1165.72 102.59 1133.48 102.59H1093.48V1.58986H1133.48C1165.69 1.56986 1186.21 22.35 1186.21 52.01ZM1131.33 77.8101C1147.52 77.8101 1157.7 68.63 1157.7 52.01C1157.7 35.39 1147.52 25.9299 1131.33 25.9299H1121.58V77.8101H1131.33Z" fill="white"/>
<path d="M1243.07 1.56982C1268.15 1.56982 1280.76 15.8997 1280.76 33.9597C1280.76 47.1397 1273.59 58.5997 1258.54 63.1897L1281.33 102.59H1249.95L1229.89 65.3396H1226.89V102.59H1198.8V1.5896L1243.07 1.56982ZM1240.78 25.0698H1226.88V46.1396H1240.78C1248.37 46.1396 1252.24 42.4098 1252.24 35.5298C1252.21 29.2298 1248.37 25.0698 1240.78 25.0698Z" fill="white"/>
<path d="M1358.14 24.0701H1321.59V40.55H1353.84V61.8999H1321.59V80.0999H1358.14V102.59H1293.51V1.58984H1358.14V24.0701Z" fill="white"/>
<path d="M1435.94 86.1199H1400.12L1394.68 102.59H1365.21L1402.03 1.58984H1434.42L1471.1 102.59H1441.44L1435.94 86.1199ZM1418.03 31.95L1407.29 64.6199H1428.92L1418.03 31.95Z" fill="white"/>
<path d="M1480.21 1.56982H1514.21L1539.58 67.1997L1564.37 1.56982H1598.18V102.57H1570.1V46.8298L1551.04 102.57H1527.54L1508.34 46.3997V102.57H1480.21V1.56982Z" fill="white"/>
<path d="M1652.32 103.6C1629.82 103.6 1612.32 92.85 1611.2 71.21H1641.14C1641.72 78.81 1646.14 81.3899 1651.32 81.3899C1656.5 81.3899 1660.2 78.8101 1660.2 74.0801C1660.06 57.8901 1611.05 65.4799 1611.48 30.3699C1611.48 10.5999 1627.96 0 1649.31 0C1672.53 0 1687.72 11.3199 1688.72 31.3799H1658.21C1657.92 25.0699 1654.05 22.21 1648.89 22.21C1644.74 22.06 1641.44 24.4999 1641.44 29.3699C1641.44 44.4199 1690.02 39.5499 1690.02 71.9299C1690.01 89.7099 1676.21 103.6 1652.32 103.6Z" fill="white"/>
<path d="M68.53 259.19H2.53003V125.91H66.4299C93.4299 125.91 110.1 138.39 110.1 160.51C110.1 176.57 100.65 187.16 87.5999 190.75C103.48 194.35 113.13 207.75 113.13 222.89C113.15 245.39 97.08 259.19 68.53 259.19ZM58.3201 155.4H39.5999V178.84H58.3201C67.3901 178.84 72.3201 175.06 72.3201 167.31C72.3101 159.37 67.3901 155.4 58.3201 155.4ZM60.97 205.12H39.5999V229.32H61.21C70.47 229.32 75.21 225.54 75.21 217.6C75.15 209.47 70.04 205.12 60.97 205.12Z" fill="#FFE401"/>
<path d="M128.84 125.91H165.7V203.23C165.7 217.03 171.94 225.73 185.93 225.73C199.92 225.73 206.54 217.03 206.54 203.23V125.91H243.59V203.23C243.59 241.23 217.13 260.51 185.18 260.51C153.04 260.51 128.84 241.23 128.84 203.23V125.91Z" fill="#FFE401"/>
<path d="M264.01 125.91H301.07V259.19H264.01V125.91Z" fill="#FFE401"/>
<path d="M359.3 125.91V230.83H400.7V259.19H322.21V125.91H359.3Z" fill="#FFE401"/>
<path d="M537.39 192.46C537.39 231.02 510.39 259.19 467.81 259.19H415.07V125.91H467.81C510.35 125.91 537.39 153.32 537.39 192.46ZM464.98 226.46C486.34 226.46 499.76 214.36 499.76 192.46C499.76 170.34 486.34 158.05 464.98 158.05H452.12V226.49L464.98 226.46Z" fill="#FFE401"/>
<path d="M582.76 125.91H690.52V155.4H654.98V259.19H617.92V155.4H582.76V125.91Z" fill="#FFE401"/>
<path d="M786.56 205.71H741.37V259.21H704.37V125.91H741.37V176.01H786.56V125.91H823.61V259.19H786.56V205.71Z" fill="#FFE401"/>
<path d="M930.05 155.59H881.84V177.33H924.38V205.5H881.84V229.5H930.05V259.18H844.79V125.91H930.05V155.59Z" fill="#FFE401"/>
<path d="M984.5 125.91H1074.87V155.4H1021.55V178.84H1060.88V207.01H1021.55V259.19H984.5V125.91Z" fill="#FFE401"/>
<path d="M1089.99 125.91H1126.85V203.23C1126.85 217.03 1133.09 225.73 1147.08 225.73C1161.07 225.73 1167.69 217.03 1167.69 203.23V125.91H1204.74V203.23C1204.74 241.23 1178.28 260.51 1146.33 260.51C1114.19 260.51 1089.99 241.23 1089.99 203.23V125.91Z" fill="#FFE401"/>
<path d="M1217.79 125.91H1325.55V155.4H1290.01V259.19H1252.95V155.4H1217.79V125.91Z" fill="#FFE401"/>
<path d="M1338.79 125.91H1375.65V203.23C1375.65 217.03 1381.89 225.73 1395.88 225.73C1409.87 225.73 1416.49 217.03 1416.49 203.23V125.91H1453.54V203.23C1453.54 241.23 1427.07 260.51 1395.12 260.51C1362.98 260.51 1338.79 241.23 1338.79 203.23V125.91Z" fill="#FFE401"/>
<path d="M1532.38 125.91C1565.46 125.91 1582.1 144.81 1582.1 168.63C1582.1 186.03 1572.65 201.15 1552.79 207.2L1582.85 259.2H1541.45L1514.98 210.05H1510.98V259.2H1473.93V125.91H1532.38ZM1529.38 156.91H1511.01V184.71H1529.35C1539.35 184.71 1544.48 179.8 1544.48 170.71C1544.48 162.4 1539.37 156.91 1529.35 156.91H1529.38Z" fill="#FFE401"/>
<path d="M1684.21 155.59H1636V177.33H1678.54V205.5H1636V229.5H1684.21V259.18H1598.94V125.91H1684.21V155.59Z" fill="#FFE401"/>
</svg>
